<svg xmlns="http://www.w3.org/2000/svg" viewBox="0 0 100 100"><defs><style>.cls-1{fill:#b76e25;}.cls-2{fill:#ff0;}.cls-3{fill:#ffbc00;}</style></defs><title>arrow-left</title><g id="Layer_2" data-name="Layer 2"><g id="Layer_1-2" data-name="Layer 1"><path class="cls-1" d="M28.85,50,81.07,78.15C91.22,70.1,97.14,60.42,97.14,50s-5.92-20.1-16.07-28.15Z"/><path class="cls-2" d="M17.58,50,97.87,6.71c2.84-1.53,2.84-4,0-5.56a12.17,12.17,0,0,0-10.32,0L2.13,47.21C.7,48,0,49,0,50s.7,2,2.13,2.79L87.55,98.85a12.17,12.17,0,0,0,10.32,0c2.84-1.53,2.84-4,0-5.56Z"/><path class="cls-3" d="M28.85,50,95.38,14.13c2.35-1.27,2.35-3.34,0-4.61a10.09,10.09,0,0,0-8.55,0L16,47.68A2.8,2.8,0,0,0,14.29,50,2.8,2.8,0,0,0,16,52.32L86.83,90.48a10.09,10.09,0,0,0,8.55,0c2.35-1.27,2.35-3.34,0-4.61Z"/></g></g></svg>