<svg xmlns="http://www.w3.org/2000/svg" viewBox="0 0 100 52"><defs><style>.cls-1{fill:#ff0;}</style></defs><title>double-arrow-wide</title><g id="Layer_2" data-name="Layer 2"><g id="Layer_1-2" data-name="Layer 1"><path class="cls-1" d="M74,50.5a4,4,0,0,1-2.83-6.82L84.85,30H15.15L28.83,43.68a4,4,0,0,1-5.66,5.66L2.66,28.83a4,4,0,0,1,0-5.66L23.17,2.67a4,4,0,0,1,5.66,5.66L15.15,22h69.7L71.17,8.32a4,4,0,0,1,5.66-5.66L97.33,23.17a4,4,0,0,1,0,5.66L76.83,49.33A4,4,0,0,1,74,50.5Z"/><path d="M26,3a2.49,2.49,0,0,1,1.77,4.26L16.65,18.38,11.53,23.5H88.47l-5.12-5.12L72.23,7.26a2.5,2.5,0,0,1,3.54-3.54L96.27,24.23a2.5,2.5,0,0,1,0,3.54L75.77,48.27a2.5,2.5,0,0,1-3.54-3.54L83.35,33.62l5.12-5.12H11.53l5.12,5.12L27.77,44.74a2.5,2.5,0,0,1-3.54,3.54L3.73,27.77a2.5,2.5,0,0,1,0-3.54L24.23,3.73A2.48,2.48,0,0,1,26,3m0-3a5.48,5.48,0,0,0-3.89,1.6L1.6,22.11a5.52,5.52,0,0,0,0,7.78L22.11,50.39a5.5,5.5,0,1,0,7.78-7.78L18.77,31.5H81.23L70.11,42.62a5.5,5.5,0,0,0,7.78,7.78L98.39,29.89a5.52,5.52,0,0,0,0-7.78L77.89,1.6a5.5,5.5,0,0,0-7.78,7.78L81.23,20.5H18.77L29.89,9.38A5.49,5.49,0,0,0,26,0Z"/></g></g></svg>