<svg xmlns="http://www.w3.org/2000/svg" viewBox="0 0 100 100"><defs><style>.cls-1{fill:none;stroke:#ff9100;stroke-miterlimit:10;stroke-width:2.5px;stroke-dasharray:4.96 1.98;}.cls-2{fill:#ff0;}</style></defs><title>full-screen</title><g id="Layer_2" data-name="Layer 2"><g id="Layer_1-2" data-name="Layer 1"><rect class="cls-1" x="15.5" y="15.5" width="69" height="69" rx="7" ry="7"/><path class="cls-2" d="M65.5,98.5a4,4,0,0,1,0-8H84.79L50,55.71,15.21,90.5H34.5a4,4,0,0,1,0,8H5.5a3.94,3.94,0,0,1-1.4-.26L4,98.2l-.1,0a4.07,4.07,0,0,1-.61-.33l-.06,0a4.2,4.2,0,0,1-.52-.42l-.1-.13-.08-.05a4.13,4.13,0,0,1-.4-.51A4.25,4.25,0,0,1,1.79,96,4,4,0,0,1,1.5,94.5v-29a4,4,0,0,1,8,0V84.79L44.29,50,9.5,15.21V34.5a4,4,0,0,1-8,0V5.5a4,4,0,0,1,.65-2.17l.05-.09a4.11,4.11,0,0,1,.47-.56h0a4.1,4.1,0,0,1,.62-.51A4.25,4.25,0,0,1,4,1.79,4,4,0,0,1,5.5,1.5h29a4,4,0,0,1,0,8H15.21L50,44.29,84.79,9.5H65.5a4,4,0,0,1,0-8h29a4,4,0,0,1,2.17.65l.09.05a3.92,3.92,0,0,1,.52.43l.05,0a4,4,0,0,1,.5.62,4.29,4.29,0,0,1,.36.68l0,.08A3.93,3.93,0,0,1,98.5,5.5v29a4,4,0,0,1-8,0V15.21L55.71,50,90.5,84.79V65.5a4,4,0,0,1,8,0v29a3.94,3.94,0,0,1-.27,1.43l0,.07a4,4,0,0,1-.35.67,4.3,4.3,0,0,1-.37.49l-.21.11-.11.21a4.28,4.28,0,0,1-.46.36,4.39,4.39,0,0,1-.62.33h0l-.1,0a3.93,3.93,0,0,1-1.44.27Z"/><path d="M94.5,3a2.45,2.45,0,0,1,.92.18h0a2.5,2.5,0,0,1,.39.21l.07,0a2.59,2.59,0,0,1,.35.29h0a2.54,2.54,0,0,1,.28.34h0l0,.06a2.51,2.51,0,0,1,.2.38l0,0A2.45,2.45,0,0,1,97,5.5v29a2.5,2.5,0,0,1-5,0V11.59l-5.12,5.12L55.71,47.88,53.59,50l2.12,2.12L86.88,83.29,92,88.41V65.5a2.5,2.5,0,0,1,5,0v29a2.45,2.45,0,0,1-.18.92v0a2.53,2.53,0,0,1-.21.39l0,.06a2.5,2.5,0,0,1-.27.33h0l0,0a2.56,2.56,0,0,1-.32.26h0l-.06,0a2.52,2.52,0,0,1-.36.2h0l-.06,0a2.45,2.45,0,0,1-.92.18h-29a2.5,2.5,0,0,1,0-5H88.41l-5.12-5.12L52.12,55.71,50,53.59l-2.12,2.12L16.71,86.88,11.59,92H34.5a2.5,2.5,0,0,1,0,5H5.5a2.48,2.48,0,0,1-.94-.19h0a2.52,2.52,0,0,1-.4-.21l-.06,0a2.5,2.5,0,0,1-.33-.27h0l0,0a2.56,2.56,0,0,1-.26-.32h0l0-.06a2.52,2.52,0,0,1-.2-.36h0l0-.06A2.45,2.45,0,0,1,3,94.5v-29a2.5,2.5,0,0,1,5,0V88.41l5.12-5.12L44.29,52.12,46.41,50l-2.12-2.12L13.12,16.71,8,11.59V34.5a2.5,2.5,0,0,1-5,0V5.5a2.48,2.48,0,0,1,.19-.94h0a2.54,2.54,0,0,1,.22-.4l0-.05a2.54,2.54,0,0,1,.29-.35h0a2.54,2.54,0,0,1,.34-.28h0l.06,0a2.51,2.51,0,0,1,.37-.2l.06,0A2.45,2.45,0,0,1,5.5,3h29a2.5,2.5,0,0,1,0,5H11.59l5.12,5.12L47.88,44.29,50,46.41l2.12-2.12L83.29,13.12,88.41,8H65.5a2.5,2.5,0,0,1,0-5h29m0-3h-29a5.5,5.5,0,0,0,0,11H81.17L50,42.17,18.83,11H34.5a5.5,5.5,0,0,0,0-11H5.5a5.44,5.44,0,0,0-2,.4h0a5.5,5.5,0,0,0-.93.49l0,0a5.56,5.56,0,0,0-.85.69h0a5.56,5.56,0,0,0-.69.85l0,0a5.49,5.49,0,0,0-.49.93h0a5.44,5.44,0,0,0-.4,2v29a5.5,5.5,0,0,0,11,0V18.83L42.17,50,11,81.17V65.5a5.5,5.5,0,0,0-11,0v29a5.44,5.44,0,0,0,.4,2h0a5.49,5.49,0,0,0,.49.93l0,0a5.57,5.57,0,0,0,.69.85h0a5.57,5.57,0,0,0,.85.69l0,0a5.49,5.49,0,0,0,.93.49h0a5.44,5.44,0,0,0,2,.4h29a5.5,5.5,0,0,0,0-11H18.83L50,57.83,81.17,89H65.5a5.5,5.5,0,0,0,0,11h29a5.44,5.44,0,0,0,2-.4h0a5.49,5.49,0,0,0,.93-.49l0,0a5.57,5.57,0,0,0,.85-.69h0a5.57,5.57,0,0,0,.69-.85l0,0a5.5,5.5,0,0,0,.49-.93h0a5.44,5.44,0,0,0,.4-2v-29a5.5,5.5,0,0,0-11,0V81.17L57.83,50,89,18.83V34.5a5.5,5.5,0,0,0,11,0V5.5a5.44,5.44,0,0,0-.4-2h0a5.5,5.5,0,0,0-.49-.93l0,0a5.56,5.56,0,0,0-.69-.85h0a5.56,5.56,0,0,0-.85-.69l0,0a5.5,5.5,0,0,0-.93-.49h0a5.44,5.44,0,0,0-2-.4Z"/></g></g></svg>