<?xml version="1.0" encoding="utf-8"?>
<svg version="1.1" id="Layer_1" xmlns="http://www.w3.org/2000/svg" xmlns:xlink="http://www.w3.org/1999/xlink" x="0px" y="0px"
	 viewBox="0 0 97.8 97.8" style="enable-background:new 0 0 97.8 97.8;" xml:space="preserve">
<style type="text/css">
	.st0{fill:#FFFF7D;}
	.st1{fill:#FCEE21;}
</style>
<title>select-folder</title>
<g id="Layer_2">
	<g id="Layer_1-2">
		<path class="st0" d="M90,18c-2.6-0.6-5.2,1-5.9,3.6v0.3c-1.9-1.3-4.2-2-6.5-2v-4c0-2.2-1.8-4-4-4H39.1V8c0-2.2-1.8-4-4-4H12
			C9.8,4,8,5.7,8,8v4H4c-2.2,0-4,1.8-4,4v69.7c0,2.2,1.8,4,4,4h66.2c0.7,0.8,1.6,1.4,2.6,1.6c2.6,0.6,5.2-1,5.9-3.6l15-63.9
			C94.2,21.2,92.6,18.6,90,18z M34.8,12H12v-1.8c0-1.1,0.9-2,2-2h18.8c1.1,0,2,0.9,2,2L34.8,12z M77.6,49.5V44c0.4,0,0.9,0,1.3,0
			L77.6,49.5z"/>
		<g>
			<path class="st1" d="M8,93.2c-1.9,0-3.5-1.6-3.5-3.5V20c0-1.9,1.6-3.5,3.5-3.5h69.6c1.9,0,3.5,1.6,3.5,3.5v35.8l7.5-32
				c0.5-2,2.2-3.4,4.3-3.4c0.3,0,0.7,0,1,0.1c2.3,0.5,3.8,2.9,3.3,5.2l-15,63.9c-0.4,1.5-1.5,2.7-3,3.2c-0.5,0.2-1,0.3-1.5,0.3H8z"
				/>
			<path d="M77.6,17c1.7,0,3,1.3,3,3v31.5v8.6l2-8.4L89.1,24c0.4-1.8,2-3,3.8-3c0.3,0,0.6,0,0.9,0.1c2.1,0.5,3.4,2.6,2.9,4.6
				l-15,63.9c-0.3,1.4-1.4,2.4-2.7,2.8l-0.1,0l-0.1,0c-0.4,0.2-0.8,0.3-1.2,0.3H8c-1.7,0-3-1.3-3-3V20c0-1.7,1.3-3,3-3H77.6
				 M77.6,16H8c-2.2,0-4,1.8-4,4v69.7c0,2.2,1.8,4,4,4h69.6c0,0,0,0,0,0c0.6,0,1.1-0.1,1.6-0.3c1.7-0.5,3-1.8,3.4-3.5l15-63.9
				c0.6-2.6-1-5.2-3.6-5.8C93.6,20,93.3,20,92.9,20c-2.2,0-4.2,1.5-4.7,3.8l-6.5,27.8V20C81.6,17.8,79.8,16,77.6,16L77.6,16z"/>
		</g>
	</g>
</g>
</svg>
